<svg id="Capa_1" enable-background="new 0 0 512 512" height="512" viewBox="0 0 512 512" width="512" xmlns="http://www.w3.org/2000/svg"><g><path d="m256 22c-135.31 0-245 109.69-245 245 0 21.06 2.66 41.498 7.657 61l5.934 1h462.818l5.934-1c4.997-19.502 7.657-39.94 7.657-61 0-135.31-109.69-245-245-245z" fill="#ffe5de"/><path d="m469.464 95h-125.978c-8.028 0-14.536 6.508-14.536 14.536s6.508 14.536 14.536 14.536h2.638c8.028 0 14.536 6.508 14.536 14.536s-6.508 14.536-14.536 14.536h-57.397l18.002 29.072h116.22c8.028 0 14.536-6.508 14.536-14.536s-6.508-14.536-14.536-14.536h-9.691c-8.028 0-14.536-6.508-14.536-14.536s6.508-14.536 14.536-14.536h56.205c8.028 0 14.536-6.508 14.536-14.536s-6.507-14.536-14.535-14.536z" fill="#fff3de"/><g><g><path d="m486.621 329-42.557-68.728c-1.296-2.094-4.342-2.094-5.638 0l-42.557 68.728z" fill="#fff"/><path d="m426.691 308.904 23.743-38.344-6.37-10.288c-1.296-2.094-4.342-2.094-5.638 0l-20.924 33.792z" fill="#f2fbff"/><g><g><path d="m241.744 303.137h76.037l32.5-52.486-31.154-50.312-1.795-1h-2.753c-6.646 0-12.053 5.407-12.053 12.053v21.062c0 4.527-3.683 8.21-8.21 8.21-.182 0-.364-.006-.549-.018-4.297-.278-7.662-4.015-7.662-8.508v-10.738c0-5.63-4.581-10.211-10.211-10.211-.225 0-.45.007-.678.022-5.346.347-9.532 4.96-9.532 10.504v25.781c0 4.527-3.684 8.21-8.211 8.21-.182 0-.364-.006-.548-.018-4.296-.278-7.662-4.015-7.662-8.508v-35.79c0-6.646-5.407-12.053-12.053-12.053l-21.268-.005-1.799 1.005-18.027 29.113z" fill="#dff6fd"/></g><g><path d="m237.766 199.366c-.185-.008-.368-.028-.555-.028l-21.268-.005-1.799 1.005-18.027 29.113 11.297 18.244 28.613-47.356z" fill="#c8effe"/></g><path d="m391.617 343.766h-5.589c-4.071 0-7.383-3.312-7.383-7.383s3.312-7.383 7.383-7.383h53.106l-66.453-107.32c-1.296-2.094-4.342-2.094-5.638 0l-66.453 107.32h46.723c4.071 0 7.383 3.312 7.383 7.383s-3.312 7.383-7.383 7.383h-37.537c-5.174 0-9.383 4.209-9.383 9.383s4.209 9.383 9.383 9.383h81.842c5.174 0 9.383-4.209 9.383-9.383s-4.21-9.383-9.384-9.383z" fill="#c8effe"/><path d="m321.128 302.136c5.883 0 11.166 2.67 14.72 6.85l45.448-73.396-8.614-13.911c-1.296-2.094-4.342-2.094-5.638 0l-49.819 80.457z" fill="#99e6fc"/><path d="m116.131 329-42.557-68.728c-1.296-2.094-4.342-2.094-5.638 0l-42.557 68.728z" fill="#fff"/><path d="m79.994 270.64-6.42-10.368c-1.296-2.094-4.342-2.094-5.638 0l-42.557 68.728h18.478z" fill="#f2fbff"/><path d="m258.935 329-88.841-143.476c-1.296-2.094-4.342-2.094-5.638 0l-88.842 143.476z" fill="#c8effe"/><path d="m170.093 185.524c-1.296-2.094-4.342-2.094-5.638 0l-88.841 143.476h25.065l79.128-127.789z" fill="#99e6fc"/><path d="m321.128 302.136h-104.815c-7.726 0-14.413 4.603-17.503 11.194h-60.854c-9.381 0-17.247 6.774-18.974 15.67h219.944c.988-2.317 1.536-4.862 1.536-7.529.001-10.634-8.7-19.335-19.334-19.335z" fill="#fff"/><g fill="#f2fbff"><path d="m241.331 302.136h-25.018c-7.726 0-14.413 4.603-17.503 11.194h19.457c3.03 0 5.966-1.303 7.826-3.695 3.541-4.552 9.057-7.499 15.238-7.499z"/><path d="m162.974 313.33h-25.018c-9.381 0-17.247 6.774-18.974 15.67h25.018c1.726-8.896 9.593-15.67 18.974-15.67z"/></g></g><path d="m319.127 200.338-49.672-80.219c-1.296-2.094-4.342-2.094-5.638 0l-49.672 80.219h23.066c6.104 0 11.053 4.948 11.053 11.053v35.79c0 4.906 3.702 9.189 8.598 9.506 5.364.347 9.824-3.901 9.824-9.191v-25.781c0-4.906 3.702-9.189 8.597-9.506 5.364-.347 9.824 3.901 9.824 9.191v10.737c0 4.906 3.702 9.189 8.597 9.506 5.364.347 9.824-3.901 9.824-9.191v-21.061c0-6.104 4.948-11.053 11.053-11.053z" fill="#fff"/><g><path d="m269.454 120.119c-1.296-2.094-4.342-2.094-5.638 0l-49.672 80.219h21.883l41.55-67.102z" fill="#f2fbff"/></g><g fill="#fff"><path d="m139.747 247.662v35.79c0 4.906 3.702 9.189 8.597 9.506 5.364.347 9.824-3.901 9.824-9.19v-25.781c0-4.906 3.702-9.189 8.597-9.506 5.364-.347 9.824 3.901 9.824 9.191v10.737c0 4.906 3.702 9.189 8.597 9.506 5.364.347 9.824-3.901 9.824-9.191v-21.061c0-4.733 2.983-8.753 7.166-10.326l-32.083-51.812c-1.296-2.094-4.342-2.094-5.638 0l-32.039 51.742c4.27 1.528 7.331 5.599 7.331 10.395z"/><circle cx="257.474" cy="276.049" r="9.211"/><circle cx="185.789" cy="293.211" r="9.211"/></g><path d="m347.348 289.178c1.295 1.295 3.394 1.295 4.689 0l12.442-12.442c1.295-1.295 3.394-1.295 4.689 0l8.021 8.021c1.295 1.295 3.394 1.295 4.689 0l18.441-18.441-27.639-44.636c-1.296-2.094-4.342-2.094-5.638 0l-33.344 53.85z" fill="#dff6fd"/></g><g><g><circle cx="131.434" cy="63.566" fill="#fee903" r="63.566"/></g><g><circle cx="131.434" cy="63.566" fill="#fee903" r="63.566"/></g><path d="m112.382 63.566c0-27.275 17.182-50.529 41.309-59.551-6.928-2.59-14.425-4.015-22.257-4.015-35.106 0-63.566 28.459-63.566 63.566 0 35.106 28.459 63.566 63.566 63.566 7.832 0 15.329-1.425 22.257-4.015-24.127-9.022-41.309-32.277-41.309-59.551z" fill="#f4d902"/></g><path d="m386.028 328c-4.63 0-8.383 3.753-8.383 8.383s3.753 8.383 8.383 8.383h5.589c4.63 0 8.383 3.753 8.383 8.383s-3.753 8.383-8.383 8.383h-81.842c-4.63 0-8.383-3.753-8.383-8.383s3.753-8.383 8.383-8.383h37.537c4.63 0 8.383-3.753 8.383-8.383s-3.753-8.383-8.383-8.383h-328.655c27.111 105.796 123.093 184 237.343 184 60.9 0 116.607-22.224 159.461-59l-.372-1h-78.989c-5.569 0-10.101-4.531-10.101-10.101s4.531-10.101 10.101-10.101h71.043c6.672 0 12.101-5.428 12.101-12.101s-5.429-12.101-12.101-12.101h-40.702c-5.569 0-10.1-4.531-10.1-10.101s4.53-10.1 10.1-10.1h101.817l1.712-1c10.159-18.167 18.082-37.753 23.372-58.397h-107.314z" fill="#0182fc"/><g fill="#0593fc"><path d="m183.93 361.101c2.229-4.921 7.159-8.101 12.561-8.101h42.323c.616-1.28.971-2.709.971-4.225 0-5.399-4.376-9.775-9.775-9.775h-118.605c-5.399 0-9.775 4.376-9.775 9.775s4.376 9.775 9.775 9.775h35.842c5.399 0 9.775 4.376 9.775 9.775s-4.376 9.775-9.775 9.775h-62.561c-5.399 0-9.775 4.376-9.775 9.775 0 5.399 4.376 9.775 9.775 9.775h82.693z"/><path d="m469.971 386.397h-103.529c-6.131 0-11.1 4.97-11.1 11.1 0 6.131 4.97 11.101 11.1 11.101h40.702c6.131 0 11.1 4.97 11.1 11.101s-4.97 11.1-11.1 11.1h-71.043c-6.131 0-11.101 4.97-11.101 11.1 0 6.131 4.97 11.101 11.101 11.101h79.361c21.853-18.754 40.357-41.296 54.509-66.603z"/><path d="m266.899 441h-43.662c-6.131 0-11.101-4.97-11.101-11.101 0-6.131 4.97-11.101 11.101-11.101h43.662c6.131 0 11.101 4.97 11.101 11.101 0 6.131-4.97 11.101-11.101 11.101z"/><path d="m458 351.775c0-5.399-4.376-9.775-9.775-9.775h-20.448c-5.399 0-9.775 4.376-9.775 9.775s4.376 9.775 9.775 9.775h20.448c5.399 0 9.775-4.376 9.775-9.775z"/><path d="m298 476.225c0-5.399-4.376-9.775-9.775-9.775h-21.896c-5.399 0-9.775 4.376-9.775 9.775s4.376 9.775 9.775 9.775h21.896c5.399 0 9.775-4.376 9.775-9.775z"/><path d="m172 441.5c0-6.131-4.97-11.101-11.101-11.101h-24.865c-6.131 0-11.101 4.97-11.101 11.101s4.97 11.101 11.101 11.101h24.865c6.131 0 11.101-4.97 11.101-11.101z"/></g></g><path d="m305.754 396.942-8.226-14.91c-2.168-3.93-6.302-6.37-10.791-6.37h-8.412l-3.969-13.147c-1.884-6.243-7.636-10.515-14.157-10.515h-63.708c-5.807 0-11.076 3.399-13.472 8.688l-16.574 36.602c-1.478 3.263.908 6.963 4.491 6.963h130.503c3.752 0 6.128-4.025 4.315-7.311z" fill="#fff"/><path d="m192.07 397.29 16.575-36.602c2.395-5.29 7.665-8.688 13.472-8.688h-25.625c-5.807 0-11.076 3.398-13.472 8.688l-16.574 36.602c-1.478 3.263.908 6.963 4.491 6.963h25.625c-3.584 0-5.97-3.7-4.492-6.963z" fill="#f2fbff"/><path d="m275 85c0-8.284-6.716-15-15-15h-22c-8.284 0-15 6.716-15 15s6.716 15 15 15h22c8.284 0 15-6.716 15-15z" fill="#fff3de"/><path d="m205 166h-39c-8.284 0-15-6.716-15-15 0-8.284 6.716-15 15-15h39c8.284 0 15 6.716 15 15 0 8.284-6.716 15-15 15z" fill="#fff3de"/><path d="m139.747 247.662v18.244l40.06-64.695-9.714-15.687c-1.296-2.094-4.342-2.094-5.638 0l-32.039 51.742c4.27 1.529 7.331 5.6 7.331 10.396z" fill="#f2fbff"/><path d="m372.681 221.68c-1.296-2.094-4.342-2.094-5.638 0l-33.344 53.85 13.649 13.649c.158.158.329.296.508.415l33.439-54.003z" fill="#c8effe"/></g></svg>